# xmcd
#
# Track frame offsets: 
#        150
#        19863
#        34668
#        56809
#        108262
#        169286
#        205371
#        231873
#        253279
#        304983
#
# Disc length: 4080 seconds
#
# Revision: 0
# Processed by: cddbd v1.5.2PL0 Copyright (c) Steve Scherf et al.
# Submitted via: ExactAudioCopy v0.95b3
#
DISCID=8e0fee0a
DTITLE=Jimi Hendrix  - Rockin' The USA Vol.2 -  Disc 3
DYEAR=1900
DGENRE=
TTITLE0=Intro
TTITLE1=Fire
TTITLE2=Hey Joe
TTITLE3=Spanish Castle Magic
TTITLE4=Red House
TTITLE5=I Don't Live Today
TTITLE6=Foxy Lady
TTITLE7=Purple Haze
TTITLE8=Voodoo Child (Slight Return)
TTITLE9=Outro
EXTD=
EXTT0=
EXTT1=
EXTT2=
EXTT3=
EXTT4=
EXTT5=
EXTT6=
EXTT7=
EXTT8=
EXTT9=
PLAYORDER=
